<svg xmlns="http://www.w3.org/2000/svg" viewBox="0 0 318.9 63.6"><defs><style>.cls-1{fill:#fff;}</style></defs><title>Beardgel-SmallLogo</title><g id="Layer_2" data-name="Layer 2"><g id="Layer_1-2" data-name="Layer 1"><path class="cls-1" d="M32.8,81H15V32.6H.4L3.6,19H45.7V32.6H32.8Z" transform="translate(-0.4 -18.2)"/><path class="cls-1" d="M90.9,53.9H71.6V81H53.7V19H71.6V40.2H90.9V19h18V81h-18Z" transform="translate(-0.4 -18.2)"/><path class="cls-1" d="M121.9,19H160V32.6H139.9v8.7h14.7V55H139.9V67.3H168L164.8,81H121.9Z" transform="translate(-0.4 -18.2)"/><path class="cls-1" d="M190.1,19h17L187.3,81H170Z" transform="translate(-0.4 -18.2)"/><path class="cls-1" d="M229.3,81H214.6V19.1h12.2c14.3,0,24,4.5,24,15.6,0,5.9-3.6,10.5-8.8,11.6,8.8,1.4,14.2,6.5,14.2,16.4C256.2,76.1,245.9,81,229.3,81Zm-1.4-54.2h-3.3V43.1h4c9.4,0,12.1-3.1,12.1-7.9C240.8,29.3,236.9,26.8,227.9,26.8Zm4,24.1h-7.3V72.8h7.3c11.4,0,13.8-4.5,14.1-10.6C246,56.8,243.5,50.9,231.9,50.9Z" transform="translate(-0.4 -18.2)"/><path class="cls-1" d="M264.2,49.9c0-20,13.9-31.7,32.3-31.7a39.46,39.46,0,0,1,20.8,6l-.8,9s-9.4-6.8-19.8-6.8c-12.2,0-22.2,8.4-22.2,23.3s9.5,23.7,22,23.7c11.9,0,18.7-6.4,18.7-6.4l4.1,8.1a40.19,40.19,0,0,1-22.8,6.7C278.1,81.8,264.2,69.9,264.2,49.9Z" transform="translate(-0.4 -18.2)"/></g></g></svg>