<svg xmlns="http://www.w3.org/2000/svg" viewBox="0 0 687.46 566.82"><defs><style>.cls-1,.cls-2{fill:#fff;}.cls-2{stroke:#fff;stroke-linecap:square;stroke-miterlimit:10;stroke-width:16px;}</style></defs><title>Beardgel-Biglogo</title><g id="Layer_2" data-name="Layer 2"><g id="Layer_1-2" data-name="Layer 1"><path class="cls-1" d="M75.62,255H57.82v-48.4H43.22l3.2-13.61h42.1v13.61H75.62Z"/><path class="cls-1" d="M133.72,227.85h-19.3V255H96.52v-62h17.9v21.21h19.3V192.94h18v62h-18Z"/><path class="cls-1" d="M164.72,192.94h38.1v13.61h-20.1v8.7h14.7V229h-14.7v12.3h28.1l-3.2,13.7h-42.9Z"/><path class="cls-1" d="M68,375H49.32V313h16.5c15.5,0,26,4.11,26,16.41,0,4.7-2.9,9.2-6.3,10.4,6.3,1.9,11.2,6.5,11.2,15.5C96.72,369.75,85.72,375,68,375Zm-.7-49.3v9.7c7,0,8.7-2.1,8.7-4.8C76,327.35,74.12,325.65,67.32,325.65Zm5.6,22.1a14.16,14.16,0,0,0-3.1-.3h-2.5v14.3h2.5c7,0,9.3-2.9,9.4-7C79.22,351.75,77.52,348.65,72.92,347.75Z"/><path class="cls-1" d="M106.72,312.94h38.1v13.61h-20.1v8.7h14.7V349h-14.7v12.3h28.1l-3.2,13.7h-42.9Z"/><path class="cls-1" d="M202,375l-3.8-8.1h-21.6l-3.5,8.1h-19.8l32.5-63.51h3.3L221.52,375Zm-20.6-20.3h12l-5.9-13.6Z"/><path class="cls-1" d="M254.62,357.25c-2-3.6-4.1-6.4-8.6-6.4V375H228v-62h15.9c17.5,0,27.6,5.5,27.6,18.21,0,8.9-6.4,13-9.9,13.6,9.8,2.5,7.5,16.9,21.8,16.9l-3.2,13.8C261.52,375.45,258.52,364.55,254.62,357.25Zm-8.6-31.2v12.4c5.1,0,8.3-2.5,8.3-6.5C254.32,328.45,250.82,326.05,246,326.05Z"/><path class="cls-1" d="M307.22,375h-18.8v-62h18.8c27.2,0,38.2,13.91,38.2,31S334.42,375,307.22,375Zm.9-48.5h-1.7v34.8h1.7c13.2,0,19.4-7.7,19.4-17.4S321.32,326.45,308.12,326.45Z"/><path class="cls-1" d="M386.32,375.65c-21.1,0-33.9-12-33.9-31.8,0-19.4,13-31.61,33.6-31.61,7.3,0,16,2.2,20.5,5.31l-1.3,14.2c-4.1-3.4-11.4-5.9-17.5-5.9-10.3,0-17.3,7.2-17.3,17.8,0,10.8,6.8,18.2,16.9,18.2a23.67,23.67,0,0,0,6.1-.8v-20.3h18v27.7A50.69,50.69,0,0,1,386.32,375.65Z"/><path class="cls-1" d="M423.41,312.94h38.11v13.61h-20.1v8.7h14.7V349h-14.7v12.3h28.1l-3.2,13.7H423.41Z"/><path class="cls-1" d="M477.51,312.94h18v48.31h22.31l-3.2,13.7H477.51Z"/><path class="cls-1" d="M46.32,463.85c0-19.3,12.9-31.61,33-31.61,7.3,0,15.5,2.2,19.5,5.31l-1.3,14.2c-3.4-3.4-10.4-5.9-16.5-5.9-9.8,0-16.5,7.3-16.5,18s6.7,18,16.8,18a24.12,24.12,0,0,0,14.9-5.7l6.5,11a33.67,33.67,0,0,1-23.2,8.5C59.42,495.65,46.32,483.15,46.32,463.85Z"/><path class="cls-1" d="M139.92,495.65c-18.5,0-33.2-11.6-33.2-31.8s14.7-31.7,33.2-31.7,33.3,11.6,33.3,31.8S158.42,495.65,139.92,495.65Zm0-49.8c-8.2,0-15,6.7-15,18,0,11.6,6.8,18,15,18s15-6.4,15-17.9S148.22,445.85,139.92,445.85Z"/><path class="cls-1" d="M183.22,432.94h18v48.31h22.3l-3.2,13.7h-37.1Z"/><path class="cls-1" d="M231.52,432.94h18v48.31h22.3l-3.2,13.7h-37.1Z"/><path class="cls-1" d="M279.82,432.94h38.1v13.61h-20.1v8.7h14.7V469h-14.7v12.3h28.1l-3.2,13.7h-42.9Z"/><path class="cls-1" d="M326.92,463.85c0-19.3,12.9-31.61,33-31.61,7.3,0,15.5,2.2,19.5,5.31l-1.3,14.2c-3.4-3.4-10.4-5.9-16.5-5.9-9.8,0-16.5,7.3-16.5,18s6.7,18,16.8,18a24.12,24.12,0,0,0,14.9-5.7l6.5,11a33.67,33.67,0,0,1-23.2,8.5C340,495.65,326.92,483.15,326.92,463.85Z"/><path class="cls-1" d="M417.62,495h-17.8v-48.4H385.21l3.21-13.61h42.1v13.61h-12.9Z"/><path class="cls-1" d="M438.51,432.94h18v62h-18Z"/><path class="cls-1" d="M507.52,432.94h19.4l-30.41,62.71h-3.6l-30.4-62.71h19.3l12.9,32.21Z"/><path class="cls-1" d="M532.91,432.94H571v13.61h-20.1v8.7h14.7V469h-14.7v12.3H579l-3.2,13.7h-42.9Z"/><path class="cls-1" d="M596.21,495.45c-5.7,0-10.2-3.1-10.2-8.4,0-5.5,4.5-8.4,10.2-8.4,5.9,0,10.5,2.9,10.5,8.5C606.71,492.35,602.11,495.45,596.21,495.45Z"/><path class="cls-1" d="M655.06,311.87h17.8v48.4h14.6l-3.2,13.6h-42.1v-13.6h12.9Z"/><path class="cls-1" d="M597,339h19.3v-27.1h17.9v62h-17.9v-21.2H597v21.2H579v-62h18Z"/><path class="cls-1" d="M566,373.87h-38.1v-13.6H548v-8.7h-14.7v-13.7H548v-12.3h-28.1l3.2-13.7H566Z"/><path class="cls-1" d="M662.66,191.87h18.7v61.9h-16.5c-15.5,0-26-4.1-26-16.4,0-4.7,2.9-9.2,6.3-10.4-6.3-1.9-11.2-6.5-11.2-15.5C634,197.07,645,191.87,662.66,191.87Zm-4.9,27.2a14.16,14.16,0,0,0,3.1.3h2.5v-14.3h-2.5c-7,0-9.3,2.9-9.4,7C651.46,215.07,653.16,218.17,657.76,219.07Zm5.6,22.1v-9.7c-7,0-8.7,2.1-8.7,4.8C654.66,239.47,656.56,241.17,663.36,241.17Z"/><path class="cls-1" d="M624,253.87h-38.1v-13.6H606v-8.7h-14.7v-13.7H606v-12.3h-28.1l3.2-13.7H624Z"/><path class="cls-1" d="M528.66,191.87l3.8,8.1h21.6l3.5-8.1h19.8l-32.5,63.5h-3.3l-32.4-63.5Zm20.6,20.3h-12l5.9,13.6Z"/><path class="cls-1" d="M476.06,209.57c2,3.6,4.1,6.4,8.6,6.4v-24.1h18v62h-15.9c-17.5,0-27.6-5.5-27.6-18.2,0-8.9,6.4-13,9.9-13.6-9.8-2.5-7.5-16.9-21.8-16.9l3.2-13.8C469.16,191.37,472.16,202.27,476.06,209.57Zm8.6,31.2v-12.4c-5.1,0-8.3,2.5-8.3,6.5C476.36,238.37,479.86,240.77,484.66,240.77Z"/><path class="cls-1" d="M423.46,191.87h18.8v62h-18.8c-27.2,0-38.2-13.9-38.2-31S396.26,191.87,423.46,191.87Zm-.9,48.5h1.7v-34.8h-1.7c-13.2,0-19.4,7.7-19.4,17.4S409.36,240.37,422.56,240.37Z"/><path class="cls-1" d="M344.36,191.17c21.1,0,33.9,12,33.9,31.8,0,19.4-13,31.6-33.6,31.6-7.3,0-16-2.2-20.5-5.3l1.3-14.2c4.1,3.4,11.4,5.9,17.5,5.9,10.3,0,17.3-7.2,17.3-17.8,0-10.8-6.8-18.2-16.9-18.2a23.67,23.67,0,0,0-6.1.8v20.3h-18v-27.7A50.69,50.69,0,0,1,344.36,191.17Z"/><path class="cls-1" d="M307.27,253.87H269.16v-13.6h20.1v-8.7h-14.7v-13.7h14.7v-12.3h-28.1l3.2-13.7h42.91Z"/><path class="cls-1" d="M253.17,253.87h-18v-48.3H212.86l3.2-13.7h37.11Z"/><path class="cls-1" d="M684.36,103c0,19.3-12.9,31.6-33,31.6-7.3,0-15.5-2.2-19.5-5.3l1.3-14.2c3.4,3.4,10.4,5.9,16.5,5.9,9.8,0,16.5-7.3,16.5-18s-6.7-18-16.8-18a24.12,24.12,0,0,0-14.9,5.7l-6.5-11a33.67,33.67,0,0,1,23.2-8.5C671.26,71.17,684.36,83.67,684.36,103Z"/><path class="cls-1" d="M590.76,71.17c18.5,0,33.2,11.6,33.2,31.8s-14.7,31.7-33.2,31.7-33.3-11.6-33.3-31.8S572.26,71.17,590.76,71.17Zm0,49.8c8.2,0,15-6.7,15-18,0-11.6-6.8-18-15-18s-15,6.4-15,17.9S582.46,121,590.76,121Z"/><path class="cls-1" d="M547.46,133.87h-18V85.57h-22.3l3.2-13.7h37.1Z"/><path class="cls-1" d="M499.16,133.87h-18V85.57h-22.3l3.2-13.7h37.1Z"/><path class="cls-1" d="M450.86,133.87h-38.1v-13.6h20.1v-8.7h-14.7V97.87h14.7V85.57h-28.1l3.2-13.7h42.9Z"/><path class="cls-1" d="M403.76,103c0,19.3-12.9,31.6-33,31.6-7.3,0-15.5-2.2-19.5-5.3l1.3-14.2c3.4,3.4,10.4,5.9,16.5,5.9,9.8,0,16.5-7.3,16.5-18s-6.7-18-16.8-18a24.12,24.12,0,0,0-14.9,5.7l-6.5-11a33.67,33.67,0,0,1,23.2-8.5C390.66,71.17,403.76,83.67,403.76,103Z"/><path class="cls-1" d="M313.06,71.87h17.8v48.4h14.6l-3.2,13.6h-42.1v-13.6h12.9Z"/><path class="cls-1" d="M292.17,133.87h-18v-62h18Z"/><path class="cls-1" d="M223.16,133.87h-19.4l30.41-62.7h3.6l30.4,62.7h-19.3L236,101.67Z"/><path class="cls-1" d="M197.77,133.87h-38.1v-13.6h20.1v-8.7h-14.7V97.87h14.7V85.57h-28.1l3.2-13.7h42.9Z"/><path class="cls-1" d="M134.47,71.37c5.7,0,10.2,3.1,10.2,8.4,0,5.5-4.5,8.4-10.2,8.4-5.9,0-10.5-2.9-10.5-8.5C124,74.47,128.57,71.37,134.47,71.37Z"/><line class="cls-2" x1="8" y1="8" x2="8" y2="558.82"/></g></g></svg>