<svg xmlns="http://www.w3.org/2000/svg" viewBox="0 0 606.71 459.07"><defs><style>.cls-1{fill:#fff;}.cls-2{fill:none;stroke:#fff;stroke-linecap:square;stroke-miterlimit:10;stroke-width:16px;}</style></defs><title>Beardgel-Biglogo-White</title><g id="Layer_2" data-name="Layer 2"><g id="Layer_1-2" data-name="Layer 1"><path class="cls-1" d="M75.62,188.47H57.82v-48.4H43.22l3.2-13.6h42.1v13.6H75.62Z"/><path class="cls-1" d="M133.72,161.37h-19.3v27.1H96.52v-62h17.9v21.2h19.3v-21.2h18v62h-18Z"/><path class="cls-1" d="M164.72,126.47h38.1v13.6h-20.1v8.7h14.7v13.7h-14.7v12.3h28.1l-3.2,13.7h-42.9Z"/><path class="cls-1" d="M68,308.47H49.32v-61.9h16.5c15.5,0,26,4.1,26,16.4,0,4.7-2.9,9.2-6.3,10.4,6.3,1.9,11.2,6.5,11.2,15.5C96.72,303.27,85.72,308.47,68,308.47Zm-.7-49.3v9.7c7,0,8.7-2.1,8.7-4.8C76,260.87,74.12,259.17,67.32,259.17Zm5.6,22.1a14.16,14.16,0,0,0-3.1-.3h-2.5v14.3h2.5c7,0,9.3-2.9,9.4-7C79.22,285.27,77.52,282.17,72.92,281.27Z"/><path class="cls-1" d="M106.72,246.47h38.1v13.6h-20.1v8.7h14.7v13.7h-14.7v12.3h28.1l-3.2,13.7h-42.9Z"/><path class="cls-1" d="M202,308.47l-3.8-8.1h-21.6l-3.5,8.1h-19.8l32.5-63.5h3.3l32.4,63.5Zm-20.6-20.3h12l-5.9-13.6Z"/><path class="cls-1" d="M254.62,290.77c-2-3.6-4.1-6.4-8.6-6.4v24.1H228v-62h15.9c17.5,0,27.6,5.5,27.6,18.2,0,8.9-6.4,13-9.9,13.6,9.8,2.5,7.5,16.9,21.8,16.9l-3.2,13.8C261.52,309,258.52,298.07,254.62,290.77Zm-8.6-31.2V272c5.1,0,8.3-2.5,8.3-6.5C254.32,262,250.82,259.57,246,259.57Z"/><path class="cls-1" d="M307.22,308.47h-18.8v-62h18.8c27.2,0,38.2,13.9,38.2,31S334.42,308.47,307.22,308.47Zm.9-48.5h-1.7v34.8h1.7c13.2,0,19.4-7.7,19.4-17.4S321.32,260,308.12,260Z"/><path class="cls-1" d="M386.32,309.17c-21.1,0-33.9-12-33.9-31.8,0-19.4,13-31.6,33.6-31.6,7.3,0,16,2.2,20.5,5.3l-1.3,14.2c-4.1-3.4-11.4-5.9-17.5-5.9-10.3,0-17.3,7.2-17.3,17.8,0,10.8,6.8,18.2,16.9,18.2a23.67,23.67,0,0,0,6.1-.8v-20.3h18V302A50.69,50.69,0,0,1,386.32,309.17Z"/><path class="cls-1" d="M423.41,246.47h38.11v13.6h-20.1v8.7h14.7v13.7h-14.7v12.3h28.1l-3.2,13.7H423.41Z"/><path class="cls-1" d="M477.51,246.47h18v48.3h22.31l-3.2,13.7H477.51Z"/><path class="cls-1" d="M46.32,397.37c0-19.3,12.9-31.6,33-31.6,7.3,0,15.5,2.2,19.5,5.3l-1.3,14.2c-3.4-3.4-10.4-5.9-16.5-5.9-9.8,0-16.5,7.3-16.5,18s6.7,18,16.8,18a24.12,24.12,0,0,0,14.9-5.7l6.5,11a33.67,33.67,0,0,1-23.2,8.5C59.42,429.17,46.32,416.67,46.32,397.37Z"/><path class="cls-1" d="M139.92,429.17c-18.5,0-33.2-11.6-33.2-31.8s14.7-31.7,33.2-31.7,33.3,11.6,33.3,31.8S158.42,429.17,139.92,429.17Zm0-49.8c-8.2,0-15,6.7-15,18,0,11.6,6.8,18,15,18s15-6.4,15-17.9S148.22,379.37,139.92,379.37Z"/><path class="cls-1" d="M183.22,366.47h18v48.3h22.3l-3.2,13.7h-37.1Z"/><path class="cls-1" d="M231.52,366.47h18v48.3h22.3l-3.2,13.7h-37.1Z"/><path class="cls-1" d="M279.82,366.47h38.1v13.6h-20.1v8.7h14.7v13.7h-14.7v12.3h28.1l-3.2,13.7h-42.9Z"/><path class="cls-1" d="M326.92,397.37c0-19.3,12.9-31.6,33-31.6,7.3,0,15.5,2.2,19.5,5.3l-1.3,14.2c-3.4-3.4-10.4-5.9-16.5-5.9-9.8,0-16.5,7.3-16.5,18s6.7,18,16.8,18a24.12,24.12,0,0,0,14.9-5.7l6.5,11a33.67,33.67,0,0,1-23.2,8.5C340,429.17,326.92,416.67,326.92,397.37Z"/><path class="cls-1" d="M417.62,428.47h-17.8v-48.4H385.21l3.21-13.6h42.1v13.6h-12.9Z"/><path class="cls-1" d="M438.51,366.47h18v62h-18Z"/><path class="cls-1" d="M507.52,366.47h19.4l-30.41,62.7h-3.6l-30.4-62.7h19.3l12.9,32.2Z"/><path class="cls-1" d="M532.91,366.47H571v13.6h-20.1v8.7h14.7v13.7h-14.7v12.3H579l-3.2,13.7h-42.9Z"/><path class="cls-1" d="M596.21,429c-5.7,0-10.2-3.1-10.2-8.4,0-5.5,4.5-8.4,10.2-8.4,5.9,0,10.5,2.9,10.5,8.5C606.71,425.87,602.11,429,596.21,429Z"/><line class="cls-2" x1="8" y1="8" x2="8" y2="451.07"/></g></g></svg>